<svg width="50" height="50" viewBox="0 0 50 50" fill="none" xmlns="http://www.w3.org/2000/svg">
<path d="M38.3335 3.83333C34.4168 1.41667 29.9168 0 25.0001 0V3.83333H38.3335Z" fill="#ED4C5C"/>
<path d="M25.0001 7.66829H43.0001C41.5835 6.25163 40.0001 4.91829 38.3335 3.83496H25.0001V7.66829Z" fill="white"/>
<path d="M25.0001 11.4993H46.0835C45.1668 10.0827 44.1668 8.83268 43.0835 7.66602H25.0001V11.4993Z" fill="#ED4C5C"/>
<path d="M25.0001 15.3343H48.0835C47.5001 14.001 46.8335 12.6676 46.0835 11.501H25.0001V15.3343Z" fill="white"/>
<path d="M25.0001 19.1654H49.3335C49.0001 17.832 48.5835 16.582 48.0835 15.332H25.0001V19.1654Z" fill="#ED4C5C"/>
<path d="M25.0001 23.0843H49.9168C49.8335 21.751 49.5835 20.501 49.3335 19.251H25.0001V23.0843Z" fill="white"/>
<path d="M49.9167 23.082H25V24.9987H0C0 25.6654 -8.07146e-08 26.2487 0.0833333 26.9154H49.9167C50 26.2487 50 25.6654 50 24.9987C50 24.332 50 23.6654 49.9167 23.082Z" fill="#ED4C5C"/>
<path d="M0.666829 30.7503H49.3335C49.6668 29.5003 49.8335 28.2503 49.9168 26.917H0.0834961C0.166829 28.167 0.333496 29.5003 0.666829 30.7503Z" fill="white"/>
<path d="M1.91663 34.5814H48.0833C48.5833 33.3314 49 32.0814 49.3333 30.748H0.666626C0.999959 32.0814 1.41663 33.3314 1.91663 34.5814Z" fill="#ED4C5C"/>
<path d="M3.9165 38.4163H46.0832C46.8332 37.1663 47.4998 35.9163 48.0832 34.583H1.9165C2.49984 35.9163 3.1665 37.1663 3.9165 38.4163Z" fill="white"/>
<path d="M6.91675 42.2513H43.0834C44.1667 41.0846 45.2501 39.7513 46.0834 38.418H3.91675C4.75008 39.8346 5.83342 41.0846 6.91675 42.2513Z" fill="#ED4C5C"/>
<path d="M11.5832 46.0824H38.4165C40.1665 44.999 41.6665 43.6657 43.0832 42.249H6.9165C8.33317 43.749 9.9165 44.999 11.5832 46.0824Z" fill="white"/>
<path d="M25 50.0007C29.9167 50.0007 34.5 48.584 38.4167 46.084H11.5834C15.5 48.584 20.0834 50.0007 25 50.0007Z" fill="#ED4C5C"/>
<path d="M11.6667 3.83333C9.91667 4.91667 8.33333 6.25 6.91667 7.66667C5.75 8.83333 4.75 10.1667 3.91667 11.5C3.16667 12.75 2.41667 14 1.91667 15.3333C1.41667 16.5833 1 17.8333 0.666667 19.1667C0.333333 20.4167 0.166667 21.6667 0.0833333 23C-8.07146e-08 23.6667 0 24.3333 0 25H25V0C20.0833 0 15.5833 1.41667 11.6667 3.83333Z" fill="#428BC1"/>
<path d="M19.1668 0.832031L19.5835 2.08203H20.8335L19.8335 2.91536L20.1668 4.16536L19.1668 3.41536L18.1668 4.16536L18.5001 2.91536L17.5001 2.08203H18.7501L19.1668 0.832031Z" fill="white"/>
<path d="M22.5002 5.83203L22.9168 7.08203H24.1668L23.1668 7.91536L23.5002 9.16536L22.5002 8.41536L21.5002 9.16536L21.8335 7.91536L20.8335 7.08203H22.0835L22.5002 5.83203Z" fill="white"/>
<path d="M15.8335 5.83203L16.2502 7.08203H17.5002L16.5002 7.91536L16.8335 9.16536L15.8335 8.41536L14.8335 9.16536L15.1669 7.91536L14.1669 7.08203H15.4169L15.8335 5.83203Z" fill="white"/>
<path d="M19.1668 10.8311L19.5835 12.0811H20.8335L19.8335 12.9144L20.1668 14.1644L19.1668 13.4144L18.1668 14.1644L18.5001 12.9144L17.5001 12.0811H18.7501L19.1668 10.8311Z" fill="white"/>
<path d="M12.5002 10.8311L12.9168 12.0811H14.1668L13.1668 12.9144L13.5002 14.1644L12.5002 13.4144L11.5002 14.1644L11.8335 12.9144L10.8335 12.0811H12.0835L12.5002 10.8311Z" fill="white"/>
<path d="M5.83341 10.8311L6.25008 12.0811H7.50008L6.50008 12.9144L6.83341 14.1644L5.83341 13.4144L4.83341 14.1644L5.16675 12.9144L4.16675 12.0811H5.41675L5.83341 10.8311Z" fill="white"/>
<path d="M22.5002 15.8311L22.9168 17.0811H24.1668L23.1668 17.9144L23.5002 19.1644L22.5002 18.4144L21.5002 19.1644L21.8335 17.9144L20.8335 17.0811H22.0835L22.5002 15.8311Z" fill="white"/>
<path d="M15.8335 15.8311L16.2502 17.0811H17.5002L16.5002 17.9144L16.8335 19.1644L15.8335 18.4144L14.8335 19.1644L15.1669 17.9144L14.1669 17.0811H15.4169L15.8335 15.8311Z" fill="white"/>
<path d="M9.16691 15.8311L9.58358 17.0811H10.8336L9.83358 17.9144L10.1669 19.1644L9.16691 18.4144L8.16691 19.1644L8.50024 17.9144L7.50024 17.0811H8.75024L9.16691 15.8311Z" fill="white"/>
<path d="M19.1668 20.833L19.5835 22.083H20.8335L19.8335 22.9163L20.1668 24.1663L19.1668 23.4163L18.1668 24.1663L18.5001 22.9163L17.5001 22.083H18.7501L19.1668 20.833Z" fill="white"/>
<path d="M12.5002 20.833L12.9168 22.083H14.1668L13.1668 22.9163L13.5002 24.1663L12.5002 23.4163L11.5002 24.1663L11.8335 22.9163L10.8335 22.083H12.0835L12.5002 20.833Z" fill="white"/>
<path d="M5.83341 20.833L6.25008 22.083H7.50008L6.50008 22.9163L6.83341 24.1663L5.83341 23.4163L4.83341 24.1663L5.16675 22.9163L4.16675 22.083H5.41675L5.83341 20.833Z" fill="white"/>
<path d="M8.16707 9.16536L9.16707 8.41536L10.1671 9.16536L9.75041 7.91536L10.7504 7.08203H9.50041L9.16707 5.83203L8.75041 7.08203H7.58374L8.58374 7.83203L8.16707 9.16536Z" fill="white"/>
<path d="M1.5002 19.1644L2.5002 18.4144L3.5002 19.1644L3.08354 17.9144L4.08354 17.0811H2.91687L2.5002 15.8311L2.08354 17.0811H1.2502C1.2502 17.1644 1.16687 17.2477 1.16687 17.3311L1.83354 17.8311L1.5002 19.1644Z" fill="white"/>
</svg>
